<svg width="25" height="17" viewBox="0 0 25 17" fill="none" xmlns="http://www.w3.org/2000/svg">
<path d="M24.4797 2.65353C24.1936 1.61107 23.3466 0.78816 22.2687 0.505432C20.3193 -2.8952e-06 12.5008 0 12.5008 0C12.5008 0 4.68557 -2.8952e-06 2.73298 0.505432C1.65832 0.783422 0.811275 1.60633 0.521882 2.65353C-1.37087e-06 4.54734 0 8.49921 0 8.49921C0 8.49921 -1.37087e-06 12.4511 0.521882 14.3449C0.808024 15.3889 1.65507 16.2103 2.73298 16.493C4.68557 17 12.5008 17 12.5008 17C12.5008 17 20.3193 17 22.2687 16.493C23.3417 16.215 24.1904 15.3921 24.4797 14.3449C25 12.4511 25 8.49921 25 8.49921C25 8.49921 25 4.54734 24.4797 2.65353ZM10.0036 12.1431V4.85692L16.497 8.50079L10.0036 12.1447V12.1431Z" fill="white"/>
</svg>
