<svg width="20" height="20" viewBox="0 0 20 20" fill="none" xmlns="http://www.w3.org/2000/svg">
<path d="M7.56232 2.77612L7.80246 3.48663L7.56232 2.77612ZM3.13281 9.996L3.1326 9.246L1.6326 9.24643L1.63281 9.99643L3.13281 9.996ZM3.202 5.1152C2.96054 5.45176 3.03762 5.92033 3.37417 6.1618C3.71073 6.40326 4.1793 6.32618 4.42077 5.98962L3.202 5.1152ZM7.56232 2.77612L7.80246 3.48663C9.3807 2.95321 11.099 3.01154 12.6375 3.65075L12.9252 2.95815L13.213 2.26555C11.3386 1.48676 9.24506 1.4157 7.32218 2.0656L7.56232 2.77612ZM12.9252 2.95815L12.6375 3.65075C14.1759 4.28995 15.4296 5.46648 16.1651 6.96125L16.8381 6.63012L17.511 6.29898C16.6149 4.47779 15.0874 3.04435 13.213 2.26555L12.9252 2.95815ZM16.8381 6.63012L16.1651 6.96125C16.9007 8.45603 17.0679 10.1672 16.6357 11.7761L17.36 11.9707L18.0844 12.1652C18.6109 10.205 18.4072 8.12017 17.511 6.29898L16.8381 6.63012ZM17.36 11.9707L16.6357 11.7761C16.2035 13.385 15.2014 14.782 13.8158 15.707L14.2322 16.3308L14.6486 16.9545C16.3368 15.8275 17.5578 14.1255 18.0844 12.1652L17.36 11.9707ZM14.2322 16.3308L13.8158 15.707C12.4302 16.632 10.7557 17.0219 9.10408 16.8042L9.00606 17.5477L8.90804 18.2913C10.9204 18.5566 12.9605 18.0815 14.6486 16.9545L14.2322 16.3308ZM9.00606 17.5477L9.10408 16.8042C7.45243 16.5864 5.93619 15.7759 4.83769 14.5234L4.27383 15.018L3.70998 15.5125C5.04837 17.0385 6.89571 18.026 8.90804 18.2913L9.00606 17.5477ZM4.27383 15.018L4.83769 14.5234C3.73918 13.2709 3.13329 11.6619 3.13281 9.996L2.38281 9.99621L1.63281 9.99643C1.63339 12.0262 2.3716 13.9865 3.70998 15.5125L4.27383 15.018ZM3.81138 5.55241L4.42077 5.98962C5.25514 4.82667 6.43599 3.94848 7.80246 3.48663L7.56232 2.77612L7.32218 2.0656C5.65728 2.62831 4.21859 3.69828 3.202 5.1152L3.81138 5.55241Z" fill="black"/>
<path d="M7.14546 6.18843H3.33594V2.37891" stroke="black" stroke-width="1.5" stroke-linecap="square"/>
</svg>
