<svg width="19" height="20" viewBox="0 0 19 20" fill="none" xmlns="http://www.w3.org/2000/svg">
<path d="M5.54297 14.7497C4.09501 15.0758 3.16797 15.5762 3.16797 16.1383C3.16797 17.1199 6.00372 17.9163 9.5013 17.9163C12.9989 17.9163 15.8346 17.1199 15.8346 16.1383C15.8346 15.5762 14.9076 15.0758 13.4596 14.7497M11.4805 7.62467C11.4805 8.14958 11.272 8.65299 10.9008 9.02416C10.5296 9.39532 10.0262 9.60384 9.5013 9.60384C8.97639 9.60384 8.47299 9.39532 8.10182 9.02416C7.73065 8.65299 7.52214 8.14958 7.52214 7.62467C7.52214 7.09977 7.73065 6.59636 8.10182 6.22519C8.47299 5.85403 8.97639 5.64551 9.5013 5.64551C10.0262 5.64551 10.5296 5.85403 10.9008 6.22519C11.272 6.59636 11.4805 7.09977 11.4805 7.62467Z" stroke="black" stroke-linecap="round" stroke-linejoin="round"/>
<path d="M10.4962 14.3491C10.2288 14.6064 9.8721 14.7501 9.50103 14.7501C9.12996 14.7501 8.77331 14.6064 8.50591 14.3491C6.06045 11.9796 2.78374 9.33309 4.38132 5.49034C5.24661 3.41222 7.32078 2.08301 9.50103 2.08301C11.6813 2.08301 13.7562 3.41301 14.6207 5.49034C16.2167 9.32755 12.9479 11.9875 10.4962 14.3491Z" stroke="black" stroke-linecap="round" stroke-linejoin="round"/>
</svg>
