<svg width="19" height="20" viewBox="0 0 19 20" fill="none" xmlns="http://www.w3.org/2000/svg">
<path d="M10.0812 16.4842C9.83447 16.3746 9.59155 16.2565 9.35286 16.1303C8.16379 15.4582 7.07181 14.6272 6.10703 13.6603C4.85469 12.4815 3.8261 11.0857 3.07099 9.54051C2.66705 8.7101 2.39412 7.82215 2.26191 6.90822C2.08262 5.98514 2.18466 5.0295 2.55482 4.16509C2.78361 3.79301 3.05912 3.45259 3.3742 3.15255C3.50205 3.00913 3.65759 2.89305 3.83146 2.81128C4.00533 2.72952 4.19394 2.68376 4.38595 2.67676C4.78574 2.73692 5.14753 2.94592 5.3977 3.26417C5.94395 3.87138 6.52978 4.41763 7.10691 4.99476C7.33411 5.18951 7.47582 5.4658 7.50116 5.76426C7.49166 6.01522 7.39507 6.25509 7.22803 6.44272C7.03645 6.68576 6.8037 6.90822 6.58124 7.14097C6.44712 7.27063 6.34454 7.42934 6.2814 7.60489C6.21827 7.78043 6.19626 7.96812 6.21707 8.15351C6.35673 8.58699 6.59554 8.98193 6.91453 9.30697C7.29928 9.83342 7.68324 10.3203 8.11787 10.8357C8.8996 11.7385 9.82609 12.505 10.8594 13.1038C11.0023 13.2115 11.1712 13.2795 11.3489 13.3008C11.5267 13.3221 11.7068 13.2959 11.8712 13.2249C12.2151 13.0334 12.5204 12.7794 12.7713 12.476C12.989 12.2108 13.3009 12.0406 13.6413 12.0002C13.9445 12.0161 14.2303 12.1459 14.4409 12.3644C14.7132 12.5971 14.946 12.871 15.1993 13.1236C15.4519 13.3769 15.6545 13.559 15.8667 13.7918C16.1211 14.0161 16.3604 14.2557 16.5847 14.5106C16.7589 14.7354 16.8412 15.0173 16.8175 15.2999C16.7272 15.6382 16.5325 15.9393 16.2609 16.1604C15.8792 16.5577 15.4153 16.8668 14.9018 17.0661C14.3882 17.2655 13.8372 17.3503 13.2874 17.3147C12.1745 17.2515 11.0849 16.9693 10.0812 16.4842Z" stroke="black" stroke-width="1.1875" stroke-miterlimit="10" stroke-linecap="round"/>
</svg>
