<svg width="19" height="20" viewBox="0 0 19 20" fill="none" xmlns="http://www.w3.org/2000/svg">
<path d="M6.5222 2.875C6.05037 2.875 5.59786 3.06267 5.26423 3.39672C4.93059 3.73077 4.74316 4.18383 4.74316 4.65625V7.625C4.11405 7.625 3.5107 7.87522 3.06585 8.32062C2.62101 8.76602 2.37109 9.37011 2.37109 10V15.3438C2.37109 15.8162 2.55853 16.2692 2.89216 16.6033C3.2258 16.9373 3.67831 17.125 4.15014 17.125H11.2663C11.0028 16.7736 10.8206 16.368 10.7326 15.9375H4.15014C3.99286 15.9375 3.84203 15.8749 3.73082 15.7636C3.6196 15.6522 3.55712 15.5012 3.55712 15.3438V10C3.55712 9.68506 3.68208 9.38301 3.90451 9.16031C4.12693 8.93761 4.4286 8.8125 4.74316 8.8125H10.7326C10.8216 8.37313 11.0066 7.96938 11.2663 7.625H5.92919V4.65625C5.92919 4.49878 5.99167 4.34776 6.10288 4.23641C6.21409 4.12506 6.36493 4.0625 6.5222 4.0625H12.4524C12.6096 4.0625 12.7605 4.12506 12.8717 4.23641C12.9829 4.34776 13.0454 4.49878 13.0454 4.65625V6.49688C13.2375 6.45729 13.4352 6.4375 13.6384 6.4375H14.2314V4.65625C14.2314 4.18383 14.044 3.73077 13.7103 3.39672C13.3767 3.06267 12.9242 2.875 12.4524 2.875H6.5222ZM13.6384 7.625C13.1666 7.625 12.7141 7.81267 12.3804 8.14672C12.0468 8.48076 11.8593 8.93383 11.8593 9.40625V15.3438C11.8593 15.8162 12.0468 16.2692 12.3804 16.6033C12.7141 16.9373 13.1666 17.125 13.6384 17.125H14.8244C15.2963 17.125 15.7488 16.9373 16.0824 16.6033C16.416 16.2692 16.6035 15.8162 16.6035 15.3438V9.40625C16.6035 8.93383 16.416 8.48076 16.0824 8.14672C15.7488 7.81267 15.2963 7.625 14.8244 7.625H13.6384ZM13.0454 9.40625C13.0454 9.24878 13.1079 9.09775 13.2191 8.98641C13.3303 8.87506 13.4811 8.8125 13.6384 8.8125H14.8244C14.9817 8.8125 15.1325 8.87506 15.2437 8.98641C15.355 9.09775 15.4174 9.24878 15.4174 9.40625V15.3438C15.4174 15.5012 15.355 15.6522 15.2437 15.7636C15.1325 15.8749 14.9817 15.9375 14.8244 15.9375H13.6384C13.4811 15.9375 13.3303 15.8749 13.2191 15.7636C13.1079 15.6522 13.0454 15.5012 13.0454 15.3438V9.40625ZM5.92919 10.5938C5.92919 10.7512 5.86671 10.9022 5.7555 11.0136C5.64428 11.1249 5.49345 11.1875 5.33617 11.1875C5.17889 11.1875 5.02806 11.1249 4.91685 11.0136C4.80563 10.9022 4.74316 10.7512 4.74316 10.5938C4.74316 10.4363 4.80563 10.2853 4.91685 10.1739C5.02806 10.0626 5.17889 10 5.33617 10C5.49345 10 5.64428 10.0626 5.7555 10.1739C5.86671 10.2853 5.92919 10.4363 5.92919 10.5938ZM5.33617 13.5625C5.49345 13.5625 5.64428 13.4999 5.7555 13.3886C5.86671 13.2772 5.92919 13.1262 5.92919 12.9688C5.92919 12.8113 5.86671 12.6603 5.7555 12.5489C5.64428 12.4376 5.49345 12.375 5.33617 12.375C5.17889 12.375 5.02806 12.4376 4.91685 12.5489C4.80563 12.6603 4.74316 12.8113 4.74316 12.9688C4.74316 13.1262 4.80563 13.2772 4.91685 13.3886C5.02806 13.4999 5.17889 13.5625 5.33617 13.5625ZM8.30125 10.5938C8.30125 10.7512 8.23877 10.9022 8.12756 11.0136C8.01635 11.1249 7.86551 11.1875 7.70823 11.1875C7.55096 11.1875 7.40012 11.1249 7.28891 11.0136C7.1777 10.9022 7.11522 10.7512 7.11522 10.5938C7.11522 10.4363 7.1777 10.2853 7.28891 10.1739C7.40012 10.0626 7.55096 10 7.70823 10C7.86551 10 8.01635 10.0626 8.12756 10.1739C8.23877 10.2853 8.30125 10.4363 8.30125 10.5938ZM7.70823 13.5625C7.86551 13.5625 8.01635 13.4999 8.12756 13.3886C8.23877 13.2772 8.30125 13.1262 8.30125 12.9688C8.30125 12.8113 8.23877 12.6603 8.12756 12.5489C8.01635 12.4376 7.86551 12.375 7.70823 12.375C7.55096 12.375 7.40012 12.4376 7.28891 12.5489C7.1777 12.6603 7.11522 12.8113 7.11522 12.9688C7.11522 13.1262 7.1777 13.2772 7.28891 13.3886C7.40012 13.4999 7.55096 13.5625 7.70823 13.5625Z" fill="black"/>
</svg>
