<svg width="20" height="20" viewBox="0 0 20 20" fill="none" xmlns="http://www.w3.org/2000/svg">
<g clip-path="url(#clip0_434_1496)">
<path d="M19.9816 5.37793C19.9654 4.54834 19.8089 3.72748 19.5189 2.95007C19.268 2.28387 18.8752 1.68022 18.3677 1.18101C17.8704 0.671885 17.2676 0.277884 16.6016 0.026716C15.8273 -0.263838 15.0092 -0.420828 14.1823 -0.437563C13.1168 -0.488793 12.7781 -0.5 10.0706 -0.5C7.36312 -0.5 7.02368 -0.488793 5.96053 -0.439964C5.13307 -0.423627 4.31442 -0.266627 3.53963 0.0243145C2.87333 0.27636 2.27028 0.671162 1.77279 1.18101C1.26526 1.68022 0.872437 2.28387 0.621577 2.95007C0.331562 3.72721 0.175113 4.5478 0.158851 5.37713C0.110817 6.44497 0.0996094 6.78437 0.0996094 9.5004C0.0996094 12.2164 0.110817 12.5558 0.159652 13.6229C0.1759 14.4525 0.332348 15.2733 0.622377 16.0507C0.87888 16.7145 1.27102 17.3174 1.77374 17.821C2.27646 18.3247 2.87872 18.7179 3.54203 18.9757C4.31638 19.2662 5.13443 19.4232 5.96134 19.44C7.02608 19.4888 7.36472 19.5 10.073 19.5C12.7813 19.5 13.12 19.4888 14.1831 19.44C15.0106 19.4236 15.8292 19.2666 16.604 18.9757C17.2673 18.7181 17.8694 18.3248 18.3717 17.8209C18.8741 17.3171 19.2657 16.7139 19.5213 16.0499C19.8113 15.2728 19.9677 14.4522 19.984 13.6229C20.0328 12.555 20.044 12.2148 20.044 9.4996C20.044 6.78437 20.0336 6.44497 19.9816 5.37793ZM18.1867 13.5428C18.1788 14.1764 18.0626 14.8039 17.8433 15.3983C17.6778 15.8293 17.424 16.2208 17.098 16.5477C16.7721 16.8746 16.3813 17.1296 15.9508 17.2963C15.3582 17.5167 14.732 17.6331 14.0999 17.6405C13.0471 17.6885 12.7325 17.6981 10.0706 17.6981C7.40875 17.6981 7.09253 17.6885 6.04139 17.6405C5.40952 17.6326 4.7837 17.5162 4.19129 17.2963C3.76048 17.13 3.36936 16.8751 3.04323 16.5482C2.71709 16.2212 2.4632 15.8295 2.29796 15.3983C2.07825 14.8037 1.96208 14.1759 1.95451 13.542C1.90648 12.4862 1.89687 12.1708 1.89687 9.5012C1.89687 6.8316 1.90648 6.51461 1.95451 5.46038C1.96249 4.82683 2.07864 4.1993 2.29796 3.60486C2.45726 3.1703 2.71194 2.77696 3.04328 2.45377C3.36448 2.12171 3.75629 1.86618 4.18969 1.70612C4.78225 1.48575 5.40841 1.3693 6.04059 1.36192C7.09333 1.31389 7.40795 1.30428 10.0698 1.30428C12.7317 1.30428 13.0479 1.31389 14.0991 1.36192C14.7307 1.36992 15.3567 1.48599 15.9492 1.70612C16.3831 1.86622 16.7753 2.12157 17.0972 2.45377C17.4286 2.77717 17.6832 3.1702 17.8425 3.60406C18.0622 4.19867 18.1784 4.82653 18.1859 5.46038C18.234 6.51621 18.2436 6.8316 18.2436 9.5012C18.2436 12.1708 18.2348 12.487 18.1867 13.5412V13.5428ZM10.0706 4.36452C9.05452 4.36183 8.06043 4.6605 7.2141 5.22276C6.36776 5.78502 5.70719 6.5856 5.31593 7.52327C4.92467 8.46093 4.8203 9.49356 5.01601 10.4905C5.21171 11.4875 5.69872 12.4041 6.41542 13.1243C7.13213 13.8445 8.04634 14.336 9.04244 14.5367C10.0385 14.7373 11.0718 14.6381 12.0115 14.2516C12.9512 13.8651 13.7551 13.2086 14.3217 12.3651C14.8882 11.5217 15.1919 10.5292 15.1942 9.51321V9.5004C15.1953 8.827 15.0637 8.15998 14.8069 7.53744C14.5502 6.91489 14.1733 6.34901 13.6978 5.8721C13.2223 5.39519 12.6576 5.01659 12.0358 4.75792C11.414 4.49925 10.7473 4.36557 10.0738 4.36452H10.0706ZM10.0706 12.8336C9.41132 12.8355 8.76625 12.6419 8.217 12.2772C7.66775 11.9125 7.23899 11.3932 6.98493 10.7848C6.73087 10.1765 6.66292 9.5065 6.78968 8.85956C6.91644 8.21262 7.23222 7.61778 7.69708 7.15029C8.16194 6.68279 8.755 6.36362 9.40127 6.23315C10.0475 6.10267 10.718 6.16675 11.3278 6.41727C11.9377 6.6678 12.4595 7.09352 12.8274 7.6406C13.1953 8.18768 13.3927 8.83155 13.3946 9.49079V9.5004C13.3956 10.3831 13.0461 11.2301 12.4228 11.8551C11.7994 12.4802 10.9534 12.8321 10.0706 12.8336ZM16.5912 4.162C16.5907 4.31915 16.5592 4.47467 16.4986 4.61966C16.4379 4.76465 16.3493 4.89628 16.2378 5.00703C16.1263 5.11779 15.9941 5.20549 15.8487 5.26515C15.7033 5.3248 15.5475 5.35524 15.3904 5.35471C15.2332 5.35419 15.0777 5.32271 14.9327 5.26209C14.7877 5.20146 14.656 5.11287 14.5452 5.00137C14.3215 4.77619 14.1965 4.47138 14.1975 4.15399C14.1986 3.8366 14.3257 3.53263 14.5509 3.30896C14.7761 3.08528 15.081 2.96022 15.3984 2.96128C15.7158 2.96234 16.0198 3.08944 16.2435 3.31462C16.4672 3.5398 16.5923 3.84461 16.5912 4.162Z" fill="black"/>
</g>
<defs>
<clipPath id="clip0_434_1496">
<rect width="20" height="20" fill="white"/>
</clipPath>
</defs>
</svg>
