<svg width="20" height="20" viewBox="0 0 20 20" fill="none" xmlns="http://www.w3.org/2000/svg">
<g clip-path="url(#clip0_434_1502)">
<path d="M19.8658 5.30767C19.9037 4.50495 19.6215 3.72 19.0813 3.12517C18.541 2.53034 17.7868 2.17423 16.9843 2.13504C14.8231 2.03337 12.626 1.99414 10.3784 1.99414H9.67721C7.43602 1.99414 5.22925 2.03337 3.0713 2.13504C2.26872 2.17731 1.51548 2.53556 0.976158 3.13153C0.436835 3.7275 0.155266 4.51273 0.192967 5.31568C0.0961154 6.70626 0.0528924 8.09764 0.0568945 9.48821C0.0608966 10.8788 0.0961154 12.2702 0.188965 13.6656C0.150193 14.4697 0.431707 15.2564 0.971825 15.8534C1.51194 16.4503 2.26662 16.8088 3.0705 16.8502C5.3373 16.9559 7.66254 17.0023 10.027 16.9983C12.3915 16.9943 14.7127 16.9591 16.9835 16.8502C17.7874 16.8088 18.5421 16.4503 19.0822 15.8534C19.6223 15.2564 19.9038 14.4697 19.865 13.6656C19.9587 12.271 20.0011 10.8796 19.9971 9.48501C19.9931 8.09043 19.9595 6.70225 19.8658 5.30767ZM8.11878 13.3213V5.64391L13.7666 9.48101L8.11878 13.3213Z" fill="black"/>
</g>
<defs>
<clipPath id="clip0_434_1502">
<rect width="19.9501" height="15.0042" fill="white" transform="translate(0.0498047 1.99414)"/>
</clipPath>
</defs>
</svg>
