<svg width="18" height="18" viewBox="0 0 18 18" fill="none" xmlns="http://www.w3.org/2000/svg">
<g clip-path="url(#clip0_3_5625)">
<path d="M12.656 13.6561H4.34396V5.34407H7.99988V4.00015H4.34396C4.1671 3.9988 3.99174 4.03265 3.82808 4.09972C3.66443 4.16678 3.51574 4.26572 3.39068 4.39078C3.26561 4.51585 3.16667 4.66453 3.09961 4.82819C3.03254 4.99185 2.9987 5.16721 3.00004 5.34407V13.6561C2.9987 13.8329 3.03254 14.0083 3.09961 14.1719C3.16667 14.3356 3.26561 14.4843 3.39068 14.6093C3.51574 14.7344 3.66443 14.8333 3.82808 14.9004C3.99174 14.9675 4.1671 15.0013 4.34396 14.9999H12.656C12.8328 15.0013 13.0082 14.9675 13.1718 14.9004C13.3355 14.8333 13.4842 14.7344 13.6092 14.6093C13.7343 14.4843 13.8332 14.3356 13.9003 14.1719C13.9673 14.0083 14.0012 13.8329 13.9999 13.6561V10.0001H12.656V13.6561ZM10.3439 3V4.34392H12.7192L6.1875 10.8747L7.12532 11.8125L13.6524 5.28082V7.65608H15V3H10.3439Z" fill="white"/>
</g>
<defs>
<clipPath id="clip0_3_5625">
<rect width="18" height="18" fill="white"/>
</clipPath>
</defs>
</svg>
