<svg width="84" height="30" viewBox="0 0 84 30" fill="none" xmlns="http://www.w3.org/2000/svg">
<g clip-path="url(#clip0_9_92)">
<path d="M63.4566 13.9975V21.9375C63.4566 22.48 63.2416 23 62.8566 23.385C62.4741 23.7675 61.9541 23.985 61.4091 23.985H59.0041C58.5166 23.985 58.0366 23.8725 57.6016 23.655C56.9941 23.3525 56.5016 22.86 56.1991 22.2525C55.9816 21.8175 55.8691 21.3375 55.8691 20.85V9.945C55.8691 9.3375 56.0116 8.735 56.2841 8.1925C56.6641 7.4325 57.2791 6.8175 58.0366 6.44C58.5816 6.1675 59.1816 6.025 59.7891 6.025H68.8591L66.5341 0.827499H57.6241C55.9891 0.827499 54.4191 1.4775 53.2616 2.635L51.2841 4.6125C50.1266 5.77 49.4766 7.3375 49.4766 8.975V21.4275C49.4766 23.0625 50.1266 24.6325 51.2841 25.7875L52.8641 27.3675C54.0216 28.525 55.5891 29.175 57.2266 29.175H62.1016C63.7366 29.175 65.3066 28.525 66.4641 27.3675L67.6441 26.1875C68.8016 25.03 69.4516 23.4625 69.4516 21.825V13.995H63.4616L63.4566 13.9975Z" fill="#F32735"/>
<path d="M17.1125 2.635C15.955 1.4775 14.385 0.827499 12.75 0.827499H1.0625C0.475 0.827499 0 1.3025 0 1.89V28.11C0 28.6975 0.475 29.1725 1.0625 29.1725H13.15C14.785 29.1725 16.355 28.5225 17.5125 27.365L19.09 25.7875C20.2475 24.63 20.8975 23.0625 20.8975 21.425V8.9725C20.8975 7.3375 20.2475 5.7675 19.09 4.61L17.1125 2.6325V2.635ZM6.8425 6.0475H10.825C11.35 6.08 11.8675 6.1975 12.34 6.4325C13.1 6.8125 13.715 7.4275 14.0925 8.185C14.365 8.73 14.5075 9.33 14.5075 9.9375V21.1475C14.5075 21.4475 14.3675 21.9025 14.1775 22.245C13.875 22.8525 13.3825 23.345 12.775 23.6475C12.34 23.865 11.86 23.9775 11.3725 23.9775H6.845C6.375 23.9775 5.995 23.5975 5.995 23.1275V6.8975C5.995 6.4275 6.375 6.0475 6.845 6.0475H6.8425Z" fill="#F32735"/>
<path d="M33.0994 23.1325V0.827499H27.1094V28.11C27.1094 28.6975 27.5844 29.1725 28.1719 29.1725H44.5719V23.98H33.9519C33.4819 23.98 33.1019 23.6 33.1019 23.13L33.0994 23.1325Z" fill="#F32735"/>
<path d="M82.5586 0.827499H75.6836V13.5875C75.6836 13.9025 76.0661 14.0625 76.2886 13.8375L83.3086 6.8175C83.5086 6.6175 83.6211 6.3475 83.6211 6.065V1.89C83.6211 1.3025 83.1461 0.827499 82.5586 0.827499Z" fill="#F32735"/>
</g>
<defs>
<clipPath id="clip0_9_92">
<rect width="83.6225" height="28.3475" fill="white" transform="translate(0 0.827499)"/>
</clipPath>
</defs>
</svg>
