<svg width="200" height="30" viewBox="0 0 200 30" fill="none" xmlns="http://www.w3.org/2000/svg">
<g clip-path="url(#clip0_3_5539)">
<g clip-path="url(#clip1_3_5539)">
<path d="M63.4574 13.9976V21.9376C63.4574 22.4801 63.2424 23.0001 62.8574 23.3851C62.4749 23.7676 61.9549 23.9851 61.4099 23.9851H59.0049C58.5174 23.9851 58.0374 23.8726 57.6024 23.6551C56.9949 23.3526 56.5024 22.8601 56.1999 22.2526C55.9824 21.8176 55.8699 21.3376 55.8699 20.8501V9.94514C55.8699 9.33764 56.0124 8.73514 56.2849 8.19264C56.6649 7.43264 57.2799 6.81764 58.0374 6.44014C58.5824 6.16764 59.1824 6.02514 59.7899 6.02514H68.8599L66.5349 0.827637H57.6249C55.9899 0.827637 54.4199 1.47764 53.2624 2.63514L51.2849 4.61264C50.1274 5.77014 49.4774 7.33764 49.4774 8.97514V21.4276C49.4774 23.0626 50.1274 24.6326 51.2849 25.7876L52.8649 27.3676C54.0224 28.5251 55.5899 29.1751 57.2274 29.1751H62.1024C63.7374 29.1751 65.3074 28.5251 66.4649 27.3676L67.6449 26.1876C68.8024 25.0301 69.4524 23.4626 69.4524 21.8251V13.9951H63.4624L63.4574 13.9976Z" fill="white"/>
<path d="M17.1125 2.63514C15.955 1.47764 14.385 0.827637 12.75 0.827637H1.0625C0.475 0.827637 0 1.30264 0 1.89014V28.1101C0 28.6976 0.475 29.1726 1.0625 29.1726H13.15C14.785 29.1726 16.355 28.5226 17.5125 27.3651L19.09 25.7876C20.2475 24.6301 20.8975 23.0626 20.8975 21.4251V8.97264C20.8975 7.33764 20.2475 5.76764 19.09 4.61014L17.1125 2.63264V2.63514ZM6.8425 6.04764H10.825C11.35 6.08014 11.8675 6.19764 12.34 6.43264C13.1 6.81264 13.715 7.42764 14.0925 8.18514C14.365 8.73014 14.5075 9.33014 14.5075 9.93764V21.1476C14.5075 21.4476 14.3675 21.9026 14.1775 22.2451C13.875 22.8526 13.3825 23.3451 12.775 23.6476C12.34 23.8651 11.86 23.9776 11.3725 23.9776H6.845C6.375 23.9776 5.995 23.5976 5.995 23.1276V6.89764C5.995 6.42764 6.375 6.04764 6.845 6.04764H6.8425Z" fill="white"/>
<path d="M33.1003 23.1326V0.827637H27.1104V28.1101C27.1104 28.6976 27.5854 29.1726 28.1729 29.1726H44.5728V23.9801H33.9529C33.4829 23.9801 33.1029 23.6001 33.1029 23.1301L33.1003 23.1326Z" fill="white"/>
<path d="M82.5596 0.827637H75.6846V13.5876C75.6846 13.9026 76.0671 14.0626 76.2896 13.8376L83.3096 6.81764C83.5096 6.61764 83.6221 6.34764 83.6221 6.06514V1.89014C83.6221 1.30264 83.1471 0.827637 82.5596 0.827637Z" fill="white"/>
</g>
<g clip-path="url(#clip2_3_5539)">
<path d="M197.893 12.1128V29.1773H199.601C199.938 29.1773 200.209 28.9043 200.209 28.5689V12.1128H197.893Z" fill="white"/>
<path d="M194.236 18.1224C195.545 16.2927 195.39 14.5942 195.39 14.5942V12.9946H186.872V14.9597H193.002C192.866 16.1551 192.484 17.0667 191.662 17.9869C190.88 18.8426 188.556 20.9905 186.135 22.9663L187.261 24.1187C187.478 24.3402 187.833 24.3574 188.07 24.1574C189.364 23.0674 190.54 22.0246 191.426 21.2098L194.576 24.1402C194.801 24.3509 195.15 24.3531 195.378 24.1467L196.521 23.1082L192.914 19.7736C193.496 19.1565 194.131 18.275 194.238 18.1245L194.236 18.1224Z" fill="white"/>
<path d="M169.257 15.1362C169.257 14.8545 169.354 14.2998 169.547 13.9902C169.741 13.6806 169.977 13.3947 170.259 13.1345C170.54 12.8744 170.844 12.6594 171.168 12.4895C171.493 12.3197 172.015 12.2358 172.278 12.2358H173.785C174.047 12.2358 174.58 12.3197 174.905 12.4895C175.23 12.6594 175.533 12.8722 175.814 13.1345C176.096 13.3947 176.333 13.6806 176.526 13.9902C176.72 14.2998 176.816 14.8545 176.816 15.1362V16.9228C176.816 16.9228 176.788 17.8108 176.526 18.2322C176.335 18.5418 176.096 18.8277 175.814 19.0879C175.533 19.348 175.23 19.563 174.905 19.7329C174.58 19.9027 174.047 19.9866 173.785 19.9866H172.276C172.013 19.9866 171.491 19.9027 171.166 19.7329C170.841 19.5652 170.538 19.3502 170.257 19.0879C169.975 18.8277 169.739 18.5418 169.545 18.2322C169.352 17.9226 169.255 17.3894 169.255 17.1077V15.1362H169.257ZM171.471 16.8153C171.471 17.3679 171.755 17.9183 172.252 18.1139C172.398 18.172 172.555 18.1999 172.718 18.1999H173.346C173.51 18.1999 173.667 18.172 173.813 18.1139C174.309 17.9183 174.593 17.3679 174.593 16.8153V15.4307C174.593 14.8782 174.309 14.3299 173.813 14.1343C173.664 14.0762 173.51 14.0461 173.344 14.0461H172.716C172.551 14.0461 172.396 14.0762 172.248 14.1343C171.751 14.3299 171.467 14.8803 171.467 15.4307V16.8153H171.471Z" fill="white"/>
<path d="M183.527 12.1128H181.345V20.171H182.916C183.254 20.171 183.525 19.8979 183.525 19.5625V12.1128H183.527Z" fill="white"/>
<path d="M178.072 17.2711V20.1328H179.626C179.964 20.1328 180.234 19.8597 180.234 19.5243V12.2681H178.069V15.3232H176.616V17.269H178.069L178.072 17.2711Z" fill="white"/>
<path d="M174.688 27.3581V26.0659H183.529V21.2456H172.379V23.0473H181.31V24.3395H172.469V27.6333C172.469 27.8461 172.553 28.0504 172.703 28.2009L173.445 28.9426C173.596 29.0931 173.8 29.177 174.013 29.177H183.318C183.655 29.177 183.926 28.9039 183.926 28.5685V27.3581H174.686H174.688Z" fill="white"/>
<path d="M164.232 12.1128V29.1773H165.939C166.277 29.1773 166.548 28.9043 166.548 28.5689V12.1128H164.232Z" fill="white"/>
<path d="M157.138 22.2049H155.755V14.9594H161.485V12.9771H153.446V22.6435C153.446 22.8563 153.53 23.0606 153.68 23.2111L154.422 23.9528C154.573 24.1033 154.777 24.1872 154.99 24.1872H156.592C158.81 24.1872 161.266 24.0775 162.977 23.8045L162.721 21.8394C161.012 22.0759 158.864 22.2027 157.138 22.2027V22.2049Z" fill="white"/>
<path d="M109.306 29.1772V23.8667H104.327C103.989 23.8667 103.718 23.5937 103.718 23.2583V22.0392H117.089V23.2583C117.089 23.5958 116.816 23.8667 116.481 23.8667H111.501V28.5688C111.501 28.9063 111.228 29.1772 110.893 29.1772H109.311H109.306ZM106.034 20.2526C105.696 20.2526 105.426 19.9795 105.426 19.6441V12.8071H115.38V19.6441C115.38 19.9817 115.107 20.2526 114.772 20.2526H106.036H106.034ZM107.597 18.4423H113.204V14.6174H107.597V18.4444V18.4423Z" fill="white"/>
<path d="M144.391 24.286V12.4761H146.565V23.6754C146.565 24.013 146.292 24.2839 145.956 24.2839H144.393L144.391 24.286Z" fill="white"/>
<path d="M137.365 29.1776C137.167 29.1776 136.978 29.1002 136.841 28.9605L136.099 28.2187C135.959 28.079 135.882 27.8898 135.882 27.6941V23.0415H138.072V27.3329H146.804V28.5692C146.804 28.9067 146.531 29.1776 146.195 29.1776H137.367H137.365Z" fill="white"/>
<path d="M137.017 20.6851C136.772 20.6851 136.258 20.6055 135.936 20.4378C135.618 20.2723 135.317 20.0594 135.039 19.8036C134.764 19.5477 134.527 19.2639 134.336 18.9586C134.145 18.6512 134.054 18.1244 134.054 17.8643V15.4627C134.054 15.1854 134.151 14.6436 134.336 14.349C134.525 14.0459 134.762 13.7621 135.039 13.5062C135.314 13.2504 135.615 13.0375 135.936 12.8698C136.26 12.7021 136.772 12.6226 137.017 12.6226H138.873C139.131 12.6226 139.655 12.7086 139.965 12.8698C140.285 13.0375 140.586 13.2504 140.861 13.5062C141.137 13.7621 141.373 14.0459 141.564 14.349C141.747 14.6436 141.846 15.1854 141.846 15.4627V17.6794C141.846 17.6794 141.814 18.5544 141.564 18.9586C141.377 19.2596 141.141 19.5434 140.861 19.8036C140.584 20.0594 140.283 20.2744 139.965 20.4378C139.655 20.5991 139.133 20.6851 138.873 20.6851H137.015H137.017ZM137.46 14.3146C137.288 14.3146 137.125 14.3447 136.97 14.4071C136.482 14.6006 136.153 15.1424 136.153 15.7594V17.574C136.153 18.1911 136.482 18.735 136.97 18.9285C137.123 18.9887 137.288 19.0188 137.46 19.0188H138.436C138.608 19.0188 138.772 18.9887 138.926 18.9285C139.417 18.735 139.743 18.1911 139.743 17.574V15.7594C139.743 15.1424 139.414 14.6006 138.926 14.4071C138.774 14.3469 138.608 14.3146 138.436 14.3146H137.46Z" fill="white"/>
<path d="M93.1063 29.1766C92.9085 29.1766 92.7215 29.0992 92.5817 28.9595L91.84 28.2177C91.7002 28.078 91.6228 27.8888 91.6228 27.6931V21.9849H93.7793V24.036H99.5305V21.9849H101.687V28.5682C101.687 28.9057 101.414 29.1766 101.079 29.1766H93.1063ZM93.7771 27.4029H99.5284V25.8076H93.7771V27.4029Z" fill="white"/>
<path d="M99.5088 20.8525V16.9524H96.6084V19.6764C96.6084 20.014 96.3354 20.2849 96 20.2849H89.8983C89.5607 20.2849 89.2898 20.0118 89.2898 19.6764V12.8394H91.4269V15.2109H94.4864V12.8394H96.6084V15.2109H99.5088V12.4761H101.682V20.244C101.682 20.5816 101.409 20.8525 101.074 20.8525H99.5109H99.5088ZM91.4269 18.5348H94.4864V16.9524H91.4269V18.5348Z" fill="white"/>
<path d="M122.378 29.1766C122.18 29.1766 121.993 29.0992 121.853 28.9595L121.111 28.2177C120.972 28.078 120.894 27.8888 120.894 27.6931V21.9849H123.051V24.036H128.802V21.9849H130.958V28.5682C130.958 28.9057 130.685 29.1766 130.35 29.1766H122.382H122.378ZM123.049 27.4029H128.8V25.8076H123.049V27.4029Z" fill="white"/>
<path d="M128.781 20.8525V16.9524H125.881V19.6764C125.881 20.014 125.608 20.2849 125.272 20.2849H119.173C118.835 20.2849 118.564 20.0118 118.564 19.6764V12.8394H120.701V15.2109H123.761V12.8394H125.883V15.2109H128.783V12.4761H130.957V20.244C130.957 20.5816 130.684 20.8525 130.348 20.8525H128.785H128.781ZM120.699 18.5348H123.759V16.9524H120.699V18.5348Z" fill="white"/>
</g>
</g>
<defs>
<clipPath id="clip0_3_5539">
<rect width="199.845" height="28.345" fill="white" transform="translate(0 0.827637)"/>
</clipPath>
<clipPath id="clip1_3_5539">
<rect width="83.6225" height="28.3475" fill="white" transform="translate(0 0.827637)"/>
</clipPath>
<clipPath id="clip2_3_5539">
<rect width="110.921" height="17.0646" fill="white" transform="translate(89.2899 12.1128)"/>
</clipPath>
</defs>
</svg>
