<svg width="48" height="48" viewBox="0 0 48 48" fill="none" xmlns="http://www.w3.org/2000/svg">
<mask id="path-1-inside-1_58_2371" fill="white">
<path d="M0 0H48V48H0V0Z"/>
</mask>
<path d="M0 0V-1H-1V0H0ZM48 0H49V-1H48V0ZM48 48V49H49V48H48ZM0 48H-1V49H0V48ZM0 0V1H48V0V-1H0V0ZM48 0H47V48H48H49V0H48ZM48 48V47H0V48V49H48V48ZM0 48H1V0H0H-1V48H0Z" fill="#BBBBBB" mask="url(#path-1-inside-1_58_2371)"/>
<path d="M24.75 14.75H16.75V33.25H20.25M24.75 14.75L31.25 21.25M24.75 14.75V21.25H31.25M31.25 21.25V33.25H27.75M24 25.75V32M24 32L26.5 29.5M24 32L21.5 29.5" stroke="black" stroke-width="1.25" stroke-linecap="square"/>
</svg>
