<svg width="48" height="48" viewBox="0 0 48 48" fill="none" xmlns="http://www.w3.org/2000/svg">
<mask id="path-1-inside-1_58_2373" fill="white">
<path d="M0 0H48V48H0V0Z"/>
</mask>
<path d="M0 0V-1H-1V0H0ZM48 0H49V-1H48V0ZM48 48V49H49V48H48ZM0 48H-1V49H0V48ZM0 0V1H48V0V-1H0V0ZM48 0H47V48H48H49V0H48ZM48 48V47H0V48V49H48V48ZM0 48H1V0H0H-1V48H0Z" fill="#BBBBBB" mask="url(#path-1-inside-1_58_2373)"/>
<path d="M33.25 16.75H34V16H33.25V16.75ZM33.25 31.25V32H34V31.25H33.25ZM14.75 31.25H14V32H14.75V31.25ZM14.75 16.75V16H14V16.75H14.75ZM24 25L23.5251 25.5805L24 25.969L24.4749 25.5805L24 25ZM33.25 16.75H32.5V31.25H33.25H34V16.75H33.25ZM33.25 31.25V30.5H14.75V31.25V32H33.25V31.25ZM14.75 31.25H15.5V16.75H14.75H14V31.25H14.75ZM14.75 16.75V17.5H33.25V16.75V16H14.75V16.75ZM24 25L24.4749 24.4195L15.4749 17.0559L15 17.6364L14.5251 18.2168L23.5251 25.5805L24 25ZM33 17.6364L32.5251 17.0559L23.5251 24.4195L24 25L24.4749 25.5805L33.4749 18.2168L33 17.6364Z" fill="black"/>
</svg>
